<?xml version="1.0" encoding="UTF-8"?>
<svg width="26px" height="26px" viewBox="0 0 26 26" version="1.1" xmlns="http://www.w3.org/2000/svg" xmlns:xlink="http://www.w3.org/1999/xlink">
    <!-- Generator: Sketch 46.2 (44496) - http://www.bohemiancoding.com/sketch -->
    <title>ethereum icon</title>
    <desc>Created with Sketch.</desc>
    <defs></defs>
    <g id="Page-1" stroke="none" stroke-width="1" fill="none" fill-rule="evenodd">
        <g id="ethereum-icon" fill="#00A8F3">
            <path d="M13,0 C9.41144039,0 6.34766895,1.26951855 3.80859375,3.80859375 C1.26951855,6.34766895 0,9.41144039 0,13 C0,16.5885596 1.26951855,19.6523311 3.80859375,22.1914062 C6.34766895,24.7304814 9.41144039,26 13,26 C16.5885596,26 19.6523311,24.7304814 22.1914062,22.1914062 C24.7304814,19.6523311 26,16.5885596 26,13 C26,9.41144039 24.7304814,6.34766895 22.1914062,3.80859375 C19.6523311,1.26951855 16.5885596,0 13,0 L13,0 Z M13,24.4257812 C9.85154676,24.4257812 7.16863088,23.3086049 4.95117188,21.0742188 C2.73371287,18.8398326 1.625,16.1484532 1.625,13 C1.625,9.85154676 2.73371287,7.16863088 4.95117188,4.95117188 C7.16863088,2.73371287 9.85154676,1.625 13,1.625 C16.1484532,1.625 18.8313691,2.73371287 21.0488281,4.95117188 C23.2662871,7.16863088 24.375,9.85154676 24.375,13 C24.375,16.1484532 23.2662871,18.8398326 21.0488281,21.0742188 C18.8313691,23.3086049 16.1484532,24.4257812 13,24.4257812 L13,24.4257812 Z" id="î" fill-rule="nonzero"></path>
            <polygon id="Triangle" points="13 4 18 13 13.0464733 15 8 13"></polygon>
            <polygon id="Triangle-Copy" transform="translate(13.000000, 17.500000) scale(1, -1) translate(-13.000000, -17.500000) " points="13 14 18 21 13.0033344 19 8 21"></polygon>
        </g>
    </g>
</svg>