<?xml version="1.0" encoding="UTF-8" standalone="no"?>
<svg width="26px" height="26px" viewBox="0 0 26 26" version="1.1" xmlns="http://www.w3.org/2000/svg" xmlns:xlink="http://www.w3.org/1999/xlink" xmlns:sketch="http://www.bohemiancoding.com/sketch/ns">
    <!-- Generator: Sketch 3.3.3 (12072) - http://www.bohemiancoding.com/sketch -->
    <title>bitcoin-icon</title>
    <desc>Created with Sketch.</desc>
    <defs></defs>
    <g id="Onboarding" stroke="none" stroke-width="1" fill="none" fill-rule="evenodd" sketch:type="MSPage">
        <path d="M13,0 C9.41144039,0 6.34766895,1.26951855 3.80859375,3.80859375 C1.26951855,6.34766895 0,9.41144039 0,13 C0,16.5885596 1.26951855,19.6523311 3.80859375,22.1914062 C6.34766895,24.7304814 9.41144039,26 13,26 C16.5885596,26 19.6523311,24.7304814 22.1914062,22.1914062 C24.7304814,19.6523311 26,16.5885596 26,13 C26,9.41144039 24.7304814,6.34766895 22.1914062,3.80859375 C19.6523311,1.26951855 16.5885596,0 13,0 L13,0 Z M13,24.4257812 C9.85154676,24.4257812 7.16863088,23.3086049 4.95117188,21.0742188 C2.73371287,18.8398326 1.625,16.1484532 1.625,13 C1.625,9.85154676 2.73371287,7.16863088 4.95117188,4.95117188 C7.16863088,2.73371287 9.85154676,1.625 13,1.625 C16.1484532,1.625 18.8313691,2.73371287 21.0488281,4.95117188 C23.2662871,7.16863088 24.375,9.85154676 24.375,13 C24.375,16.1484532 23.2662871,18.8398326 21.0488281,21.0742188 C18.8313691,23.3086049 16.1484532,24.4257812 13,24.4257812 L13,24.4257812 Z" id="î" fill="#00A8F3" sketch:type="MSShapeGroup"></path>
        <path d="M15.6423208,8.80748604 L16.1406463,6.80863916 L14.9239419,6.50541603 L14.4387849,8.45158872 C14.1189278,8.37188436 13.7904072,8.29668502 13.4639658,8.22217877 L13.9525882,6.26318407 L12.7365768,5.95996094 L12.2379047,7.95811474 C11.9731476,7.89781665 11.7132421,7.83821165 11.4609604,7.77548778 L9.78439643,7.35028231 L9.4607274,8.64981002 C9.4607274,8.64981002 10.363466,8.85669483 10.3444062,8.86951683 C10.8371871,8.99253879 10.9262481,9.31863361 10.9113469,9.57715299 L10.3437132,11.8542721 C10.3776741,11.8629356 10.4216848,11.875411 10.4702005,11.8948173 C10.4296553,11.8847676 10.3863377,11.8736783 10.3416339,11.8629356 L9.54597642,15.0528429 C9.48567833,15.2025485 9.33285387,15.4271069 8.9883924,15.3418579 C9.00052132,15.3595315 8.10402048,15.1211114 8.10402048,15.1211114 L7.5,16.5138586 L9.08334456,16.9085685 C9.37790417,16.9823817 9.66657259,17.0596602 9.95073598,17.1324338 L9.44721231,19.1541524 L10.6625306,19.4573755 L11.1612027,17.4571424 C11.4931887,17.547243 11.8154716,17.6304128 12.1308237,17.708731 L11.6338843,19.6996075 L12.8505887,20.0028306 L13.3541124,17.984924 C15.4288517,18.3775546 16.988978,18.2191855 17.6456727,16.3426675 C18.1748404,14.8317499 17.6193356,13.9602 16.5277323,13.3918732 C17.3226967,13.2085532 17.9215191,12.6856233 18.0812744,11.6054558 C18.3020208,10.1298854 17.1785358,9.33665373 15.6423208,8.80748604 Z M15.3013247,15.5036924 C14.925328,17.0146099 12.3813726,16.1978135 11.5566057,15.9930079 L12.2247362,13.3145947 C13.0495031,13.5204399 15.6943019,13.9279717 15.3013247,15.5036924 L15.3013247,15.5036924 Z M15.6776679,11.5836238 C15.3345926,12.9580043 13.2172288,12.2597247 12.5303851,12.0885336 L13.1361383,9.65928314 C13.822982,9.83047425 16.0349514,10.1499848 15.6776679,11.5836238 L15.6776679,11.5836238 Z" id="Shape" fill="#00A8F3" sketch:type="MSShapeGroup"></path>
    </g>
</svg>